<svg class="site-logo" viewBox="0 0 1355 152" xml:space="preserve" xmlns="http://www.w3.org/2000/svg"> <path d="M680,45.2c23,0,38.2,10.6,45.5,26.7 c3.3,7.7,5.2,16.9,5.2,26.5c0,9.6-1.9,18.8-5.2,26.5c-7.3,16.1-22.5,26.7-45.5,26.7c-23,0-38.2-10.6-45.5-26.7 c-3.5-7.7-5.2-16.9-5.2-26.5c0-9.6,1.7-18.6,5.2-26.5C641.8,55.9,657,45.2,680,45.2z M1240.5,1.8v147.3H1224v-15.4 c-7.7,11.9-20.7,17.7-36.3,17.7c-19.8,0-34.2-9.4-41.3-25c-3.5-7.9-5.4-17.5-5.4-28c0-10.6,1.9-20,5.4-28 c7.1-15.9,21.5-25.3,41.3-25.3c15.4,0,28.4,5.8,36.1,17.5V1.8H1240.5z M1303.7,45.2c22.3,0,38,10,45.1,25.9c4,9.2,5.2,18.6,5.2,31.1 h-84.1c0.4,6.9,1.5,12.9,3.8,18.2c5,11.1,15.7,17.3,31.1,17.3c9.8,0,18.4-2.5,24-7.5c4.6-4.2,7.3-10.2,7.9-16.7h16.7 c-0.8,10.9-5,19.4-12.1,26.1c-8.8,7.7-21.3,11.9-36.3,11.9c-23,0-39.4-9.8-46.7-26.5c-3.5-7.3-5.2-16.1-5.2-26.5 c0-10.9,1.7-19.2,5.2-26.7C1265.5,55.3,1281.4,45.2,1303.7,45.2z M937.3,1.8v147.3h-16.5v-15.4c-7.7,11.9-20.7,17.7-36.3,17.7 c-19.8,0-34.2-9.4-41.3-25c-3.5-7.9-5.4-17.5-5.4-28c0-10.6,1.9-20,5.4-28c7.1-15.9,21.5-25.3,41.3-25.3c15.4,0,28.4,5.8,36.1,17.5 V1.8H937.3z M106.6,1c2.9,0,4.8,2.9,3.7,5.5l-0.1,0.2L47.7,142.8c-2.2,4.9-7.1,8.1-12.4,8.2l-0.3,0H5c-2.9,0-4.8-2.9-3.7-5.5 l0.1-0.2L63.9,9.2C66.2,4.3,71,1.1,76.4,1l0.3,0H106.6z M120.2,31.6c1.3-2.8,5.3-2.9,6.7-0.2l0.1,0.2l52.3,113.7 c1.2,2.6-0.6,5.5-3.4,5.7l-0.2,0h-29.9c-5.4,0-10.3-3.1-12.6-7.9l-0.1-0.3l-26.7-58.1c-3.2-7-3.3-15.1-0.2-22.2l0.2-0.4L120.2,31.6z M376.5,1c3.3,0,5.9,2.6,6,5.8l0,0.2V145c0,3.3-2.6,5.9-5.8,6l-0.2,0H349c-3.3,0-5.9-2.6-6-5.8l0-0.2V7c0-3.3,2.6-5.9,5.8-6l0.2,0 H376.5z M319.7,1c3,0,5,3.1,3.9,5.8L323.6,7L313,30.1c-2.9,6.3-9.1,10.3-16,10.5l-0.4,0h-42.9c-19.3,0-35.6,15.2-36.1,34.6 c-0.5,19.7,15.3,35.9,34.8,36.3l0.6,0h43.5c6.9,0,13.2,4,16.2,10.2l0.2,0.3l10.6,23.1c1.3,2.7-0.7,5.9-3.7,6l-0.2,0h-66.7 c-41.6,0-75.4-34-75-75.7c0.4-40.9,34-73.6,74.7-74.3l1.2,0H319.7z M1128.4,47.8v101.4h-16.7V47.8H1128.4z M825.2,1.8v147.3h-16.7 V1.8H825.2z M787.4,46.5c3.8,0,7.1,0.4,10.2,1.3v15c-2.9-0.6-6.7-1-10.2-1c-18.4,0-27.3,11.5-27.3,31.1v56.3h-16.7V47.8h16.5v13.1 C765.1,52.1,774.1,46.5,787.4,46.5z M964.8,47.8l26.5,80.8l24.6-80.8h16.7l24.6,80.6l26.7-80.6h17.9l-36.3,101.4h-17.1l-24.2-78.9 l-24,78.9H983L946.9,47.8H964.8z M464.4,1.8l35.3,123.5L533.3,1.8h19.4l33.6,122.7L621.5,1.8h17.5l-43,147.3h-19.2l-34-123.5 l-34,123.5h-19l-43-147.3H464.4z M1191.7,59.9c-13.6,0-24,5.8-29,17.3c-2.5,5.4-4,12.7-4,21.3c0,8.6,1.5,15.7,4,21.3 c5,11.3,15.4,17.3,29,17.3c19.4,0,32.1-12.9,32.1-36.1v-5C1223.8,72.8,1211.1,59.9,1191.7,59.9z M888.4,59.9c-13.6,0-24,5.8-29,17.3 c-2.5,5.4-4,12.7-4,21.3c0,8.6,1.5,15.7,4,21.3c5,11.3,15.4,17.3,29,17.3c19.4,0,32.1-12.9,32.1-36.1v-5 C920.6,72.8,907.9,59.9,888.4,59.9z M680,59.9c-14.8,0-24.4,6.5-29.1,16.7l-0.2,0.4c-2.7,5.8-3.8,13.4-3.8,21.5s1,15.4,3.8,21.5 c4.8,10.4,14.2,17.1,29.2,17.1c14.8,0,24.4-6.7,29.2-17.1c2.7-6.1,3.8-13.4,3.8-21.5s-1-15.7-3.8-21.5 C704.4,66.5,694.8,59.9,680,59.9z M1303.9,59.2c-15.2,0-25.3,6.1-30.3,17.5c-1.7,4-2.7,7.9-3.3,12.7h66.6c-0.6-5.4-1.7-9.6-3.3-13.8 C1328.8,65.1,1318.7,59.2,1303.9,59.2z M1120.3,8.7c6.1,0,10.9,4.4,10.9,10.4c0,6.3-4.8,10.4-10.9,10.4c-6.9,0-11.3-4.2-11.3-10.4 C1109,13.1,1113.4,8.7,1120.3,8.7z" fill="currentColor"></path> </svg>